<?xml version="1.0" encoding="UTF-8" standalone="no"?>
<!DOCTYPE svg PUBLIC "-//W3C//DTD SVG 1.1//EN"
 "http://www.w3.org/Graphics/SVG/1.1/DTD/svg11.dtd">
<!-- Generated by graphviz version 12.2.1 (20241206.2353)
 -->
<!-- Title: Car Pages: 1 -->
<svg width="1182pt" height="358pt"
 viewBox="0.00 0.00 1181.65 357.51" xmlns="http://www.w3.org/2000/svg" xmlns:xlink="http://www.w3.org/1999/xlink">
<g id="graph0" class="graph" transform="scale(1 1) rotate(0) translate(4 353.51)">
<title>Car</title>
<polygon fill="white" stroke="none" points="-4,4 -4,-353.51 1177.65,-353.51 1177.65,4 -4,4"/>
<!-- Car -->
<g id="node1" class="node">
<title>Car</title>
<ellipse fill="lightgrey" stroke="black" cx="508.58" cy="-25.12" rx="25.12" ry="25.12"/>
<text text-anchor="middle" x="508.58" y="-19.69" font-family="Helvetica,sans-Serif" font-size="14.00">Car</text>
</g>
<!-- Body Type -->
<g id="node2" class="node">
<title>Body Type</title>
<ellipse fill="lightgrey" stroke="black" cx="508.58" cy="-163.28" rx="53.06" ry="53.06"/>
<text text-anchor="middle" x="508.58" y="-157.85" font-family="Helvetica,sans-Serif" font-size="14.00">Body Type</text>
</g>
<!-- Body Type&#45;&gt;Car -->
<g id="edge1" class="edge">
<title>Body Type&#45;&gt;Car</title>
<path fill="none" stroke="black" d="M508.58,-110.02C508.58,-93.93 508.58,-76.58 508.58,-61.86"/>
<polygon fill="black" stroke="black" points="512.09,-62.21 508.58,-52.21 505.09,-62.21 512.09,-62.21"/>
<text text-anchor="middle" x="525.46" y="-71.43" font-family="Times New Roman,serif" font-size="14.00">aspect</text>
</g>
<!-- Engine Type -->
<g id="node3" class="node">
<title>Engine Type</title>
<ellipse fill="lightgrey" stroke="black" cx="994.58" cy="-163.28" rx="60.54" ry="60.54"/>
<text text-anchor="middle" x="994.58" y="-157.85" font-family="Helvetica,sans-Serif" font-size="14.00">Engine Type</text>
</g>
<!-- Engine Type&#45;&gt;Car -->
<g id="edge2" class="edge">
<title>Engine Type&#45;&gt;Car</title>
<path fill="none" stroke="black" d="M951.86,-120.03C943.36,-113.4 934.1,-107.25 924.58,-102.73 794.56,-40.96 619.77,-28.87 544.99,-26.59"/>
<polygon fill="black" stroke="black" points="545.47,-23.1 535.38,-26.34 545.29,-30.1 545.47,-23.1"/>
<text text-anchor="middle" x="888.55" y="-71.43" font-family="Times New Roman,serif" font-size="14.00">aspect</text>
</g>
<!-- Features -->
<g id="node4" class="node">
<title>Features</title>
<ellipse fill="lightgrey" stroke="black" cx="255.58" cy="-163.28" rx="46.07" ry="46.07"/>
<text text-anchor="middle" x="255.58" y="-157.85" font-family="Helvetica,sans-Serif" font-size="14.00">Features</text>
</g>
<!-- Features&#45;&gt;Car -->
<g id="edge3" class="edge">
<title>Features&#45;&gt;Car</title>
<path fill="none" stroke="black" d="M283.76,-126.45C291.75,-117.87 300.93,-109.3 310.58,-102.73 361.99,-67.78 431.59,-45.63 473.11,-34.58"/>
<polygon fill="black" stroke="black" points="473.77,-38.03 482.57,-32.14 472.01,-31.25 473.77,-38.03"/>
<text text-anchor="middle" x="388.65" y="-71.43" font-family="Times New Roman,serif" font-size="14.00">aspect</text>
</g>
<!-- Sedan -->
<g id="node5" class="node">
<title>Sedan</title>
<ellipse fill="lightgrey" stroke="black" cx="262.58" cy="-312.91" rx="36.59" ry="36.59"/>
<text text-anchor="middle" x="262.58" y="-307.49" font-family="Helvetica,sans-Serif" font-size="14.00">Sedan</text>
</g>
<!-- Sedan&#45;&gt;Body Type -->
<g id="edge4" class="edge">
<title>Sedan&#45;&gt;Body Type</title>
<path fill="none" stroke="black" d="M296.9,-299.32C335.24,-284.4 398.26,-257.3 446.58,-223.82 452.6,-219.65 458.59,-214.9 464.34,-209.93"/>
<polygon fill="black" stroke="black" points="466.33,-212.84 471.44,-203.56 461.66,-207.63 466.33,-212.84"/>
<text text-anchor="middle" x="428.25" y="-245.02" font-family="Times New Roman,serif" font-size="14.00">AKO</text>
</g>
<!-- 4 doors -->
<g id="node8" class="node">
<title>4 doors</title>
<ellipse fill="lightgrey" stroke="black" cx="40.58" cy="-163.28" rx="40.58" ry="40.58"/>
<text text-anchor="middle" x="40.58" y="-157.85" font-family="Helvetica,sans-Serif" font-size="14.00">4 doors</text>
</g>
<!-- Sedan&#45;&gt;4 doors -->
<g id="edge7" class="edge">
<title>Sedan&#45;&gt;4 doors</title>
<path fill="none" stroke="black" d="M228.25,-299.11C191.75,-284.46 133.48,-258.01 90.58,-223.82 83.76,-218.38 77.19,-211.89 71.18,-205.22"/>
<polygon fill="black" stroke="black" points="74.06,-203.2 64.88,-197.9 68.75,-207.76 74.06,-203.2"/>
<text text-anchor="middle" x="147.87" y="-245.02" font-family="Times New Roman,serif" font-size="14.00">has</text>
</g>
<!-- spacious -->
<g id="node9" class="node">
<title>spacious</title>
<ellipse fill="lightgrey" stroke="black" cx="145.58" cy="-163.28" rx="46.07" ry="46.07"/>
<text text-anchor="middle" x="145.58" y="-157.85" font-family="Helvetica,sans-Serif" font-size="14.00">spacious</text>
</g>
<!-- Sedan&#45;&gt;spacious -->
<g id="edge8" class="edge">
<title>Sedan&#45;&gt;spacious</title>
<path fill="none" stroke="black" d="M240.3,-283.8C223.53,-262.64 200.22,-233.21 180.91,-208.86"/>
<polygon fill="black" stroke="black" points="183.9,-206.99 174.94,-201.32 178.41,-211.33 183.9,-206.99"/>
<text text-anchor="middle" x="222.51" y="-245.02" font-family="Times New Roman,serif" font-size="14.00">is</text>
</g>
<!-- fuel&#45;efficient -->
<g id="node10" class="node">
<title>fuel&#45;efficient</title>
<ellipse fill="lightgrey" stroke="black" cx="378.58" cy="-163.28" rx="59.05" ry="59.05"/>
<text text-anchor="middle" x="378.58" y="-157.85" font-family="Helvetica,sans-Serif" font-size="14.00">fuel&#45;efficient</text>
</g>
<!-- Sedan&#45;&gt;fuel&#45;efficient -->
<g id="edge9" class="edge">
<title>Sedan&#45;&gt;fuel&#45;efficient</title>
<path fill="none" stroke="black" d="M284.95,-283.45C299.24,-265.26 318.25,-241.07 335.4,-219.24"/>
<polygon fill="black" stroke="black" points="338.01,-221.59 341.43,-211.56 332.5,-217.26 338.01,-221.59"/>
<text text-anchor="middle" x="321.61" y="-245.02" font-family="Times New Roman,serif" font-size="14.00">is</text>
</g>
<!-- SUV -->
<g id="node6" class="node">
<title>SUV</title>
<ellipse fill="lightgrey" stroke="black" cx="682.58" cy="-312.91" rx="29.11" ry="29.11"/>
<text text-anchor="middle" x="682.58" y="-307.49" font-family="Helvetica,sans-Serif" font-size="14.00">SUV</text>
</g>
<!-- SUV&#45;&gt;Body Type -->
<g id="edge5" class="edge">
<title>SUV&#45;&gt;Body Type</title>
<path fill="none" stroke="black" d="M659.31,-294.67C636.28,-277.37 600.26,-249.63 570.58,-223.82 565.26,-219.19 559.8,-214.25 554.41,-209.25"/>
<polygon fill="black" stroke="black" points="556.85,-206.74 547.17,-202.45 552.06,-211.85 556.85,-206.74"/>
<text text-anchor="middle" x="624.4" y="-245.02" font-family="Times New Roman,serif" font-size="14.00">AKO</text>
</g>
<!-- large size -->
<g id="node11" class="node">
<title>large size</title>
<ellipse fill="lightgrey" stroke="black" cx="628.58" cy="-163.28" rx="49.07" ry="49.07"/>
<text text-anchor="middle" x="628.58" y="-157.85" font-family="Helvetica,sans-Serif" font-size="14.00">large size</text>
</g>
<!-- SUV&#45;&gt;large size -->
<g id="edge10" class="edge">
<title>SUV&#45;&gt;large size</title>
<path fill="none" stroke="black" d="M672.81,-285.18C666.22,-267.18 657.3,-242.78 649.19,-220.61"/>
<polygon fill="black" stroke="black" points="652.53,-219.56 645.81,-211.37 645.96,-221.96 652.53,-219.56"/>
<text text-anchor="middle" x="666.51" y="-245.02" font-family="Times New Roman,serif" font-size="14.00">is</text>
</g>
<!-- off&#45;road -->
<g id="node12" class="node">
<title>off&#45;road</title>
<ellipse fill="lightgrey" stroke="black" cx="737.58" cy="-163.28" rx="41.58" ry="41.58"/>
<text text-anchor="middle" x="737.58" y="-157.85" font-family="Helvetica,sans-Serif" font-size="14.00">off&#45;road</text>
</g>
<!-- SUV&#45;&gt;off&#45;road -->
<g id="edge11" class="edge">
<title>SUV&#45;&gt;off&#45;road</title>
<path fill="none" stroke="black" d="M692.55,-285.18C699.98,-265.22 710.35,-237.38 719.27,-213.44"/>
<polygon fill="black" stroke="black" points="722.51,-214.77 722.72,-204.18 715.95,-212.33 722.51,-214.77"/>
<text text-anchor="middle" x="717.81" y="-245.02" font-family="Times New Roman,serif" font-size="14.00">can</text>
</g>
<!-- high seating -->
<g id="node13" class="node">
<title>high seating</title>
<ellipse fill="lightgrey" stroke="black" cx="856.58" cy="-163.28" rx="59.05" ry="59.05"/>
<text text-anchor="middle" x="856.58" y="-157.85" font-family="Helvetica,sans-Serif" font-size="14.00">high seating</text>
</g>
<!-- SUV&#45;&gt;high seating -->
<g id="edge12" class="edge">
<title>SUV&#45;&gt;high seating</title>
<path fill="none" stroke="black" d="M704.65,-293.86C726.19,-276.16 759.82,-248.36 788.58,-223.82 793.56,-219.58 798.71,-215.14 803.85,-210.69"/>
<polygon fill="black" stroke="black" points="806.07,-213.39 811.33,-204.19 801.48,-208.11 806.07,-213.39"/>
<text text-anchor="middle" x="770.03" y="-245.02" font-family="Times New Roman,serif" font-size="14.00">is</text>
</g>
<!-- Hybrid -->
<g id="node7" class="node">
<title>Hybrid</title>
<ellipse fill="lightgrey" stroke="black" cx="1090.58" cy="-312.91" rx="36.59" ry="36.59"/>
<text text-anchor="middle" x="1090.58" y="-307.49" font-family="Helvetica,sans-Serif" font-size="14.00">Hybrid</text>
</g>
<!-- Hybrid&#45;&gt;Engine Type -->
<g id="edge6" class="edge">
<title>Hybrid&#45;&gt;Engine Type</title>
<path fill="none" stroke="black" d="M1070.93,-281.68C1060.13,-265.08 1046.36,-243.89 1033.49,-224.1"/>
<polygon fill="black" stroke="black" points="1036.47,-222.27 1028.08,-215.79 1030.6,-226.09 1036.47,-222.27"/>
<text text-anchor="middle" x="1068.63" y="-245.02" font-family="Times New Roman,serif" font-size="14.00">AKO</text>
</g>
<!-- petrol+dsl -->
<g id="node14" class="node">
<title>petrol+dsl</title>
<ellipse fill="lightgrey" stroke="black" cx="1123.58" cy="-163.28" rx="50.07" ry="50.07"/>
<text text-anchor="middle" x="1123.58" y="-157.85" font-family="Helvetica,sans-Serif" font-size="14.00">petrol+dsl</text>
</g>
<!-- Hybrid&#45;&gt;petrol+dsl -->
<g id="edge13" class="edge">
<title>Hybrid&#45;&gt;petrol+dsl</title>
<path fill="none" stroke="black" d="M1098.41,-276.93C1101.97,-260.97 1106.3,-241.62 1110.35,-223.5"/>
<polygon fill="black" stroke="black" points="1113.73,-224.42 1112.49,-213.9 1106.9,-222.89 1113.73,-224.42"/>
<text text-anchor="middle" x="1132.35" y="-245.02" font-family="Times New Roman,serif" font-size="14.00">combines</text>
</g>
</g>
</svg>
