<?xml version="1.0" encoding="UTF-8" standalone="no"?>
<!DOCTYPE svg PUBLIC "-//W3C//DTD SVG 1.1//EN"
 "http://www.w3.org/Graphics/SVG/1.1/DTD/svg11.dtd">
<!-- Generated by graphviz version 12.2.1 (20241206.2353)
 -->
<!-- Title: Family Pages: 1 -->
<svg width="230pt" height="367pt"
 viewBox="0.00 0.00 229.93 366.91" xmlns="http://www.w3.org/2000/svg" xmlns:xlink="http://www.w3.org/1999/xlink">
<g id="graph0" class="graph" transform="scale(1 1) rotate(0) translate(4 362.91)">
<title>Family</title>
<polygon fill="white" stroke="none" points="-4,4 -4,-362.91 225.93,-362.91 225.93,4 -4,4"/>
<!-- A -->
<g id="node1" class="node">
<title>A</title>
<ellipse fill="lightcoral" stroke="black" cx="73.14" cy="-340.91" rx="18" ry="18"/>
<text text-anchor="middle" x="73.14" y="-335.48" font-family="Helvetica,sans-Serif" font-size="14.00">A</text>
</g>
<!-- B -->
<g id="node2" class="node">
<title>B</title>
<ellipse fill="lightcoral" stroke="black" cx="74.14" cy="-145.81" rx="18" ry="18"/>
<text text-anchor="middle" x="74.14" y="-140.39" font-family="Helvetica,sans-Serif" font-size="14.00">B</text>
</g>
<!-- A&#45;&gt;B -->
<g id="edge1" class="edge">
<title>A&#45;&gt;B</title>
<path fill="none" stroke="black" d="M71.09,-322.8C69.51,-308.75 67.47,-288.32 66.64,-270.41 65.11,-237.74 68.05,-200.26 70.68,-175.22"/>
<polygon fill="black" stroke="black" points="74.13,-175.83 71.76,-165.5 67.18,-175.06 74.13,-175.83"/>
<text text-anchor="middle" x="91.39" y="-247.36" font-family="Times New Roman,serif" font-size="14.00">parent&#45;of</text>
</g>
<!-- C -->
<g id="node3" class="node">
<title>C</title>
<ellipse fill="lightcoral" stroke="black" cx="143.14" cy="-252.41" rx="18" ry="18"/>
<text text-anchor="middle" x="143.14" y="-246.98" font-family="Helvetica,sans-Serif" font-size="14.00">C</text>
</g>
<!-- A&#45;&gt;C -->
<g id="edge2" class="edge">
<title>A&#45;&gt;C</title>
<path fill="none" stroke="black" d="M84.07,-326.39C95,-312.89 112,-291.88 124.96,-275.87"/>
<polygon fill="black" stroke="black" points="127.52,-278.26 131.09,-268.29 122.08,-273.86 127.52,-278.26"/>
<text text-anchor="middle" x="139.16" y="-291.61" font-family="Times New Roman,serif" font-size="14.00">parent&#45;of</text>
</g>
<!-- D -->
<g id="node4" class="node">
<title>D</title>
<ellipse fill="lightcoral" stroke="black" cx="38.14" cy="-28.61" rx="18" ry="18"/>
<text text-anchor="middle" x="38.14" y="-23.18" font-family="Helvetica,sans-Serif" font-size="14.00">D</text>
</g>
<!-- B&#45;&gt;D -->
<g id="edge3" class="edge">
<title>B&#45;&gt;D</title>
<path fill="none" stroke="black" d="M57.49,-137.95C40.17,-129.79 14.03,-114.37 2.64,-91.72 -4.82,-76.9 5.17,-60.63 16.43,-48.47"/>
<polygon fill="black" stroke="black" points="18.87,-50.98 23.54,-41.47 13.96,-45.99 18.87,-50.98"/>
<text text-anchor="middle" x="27.39" y="-78.42" font-family="Times New Roman,serif" font-size="14.00">parent&#45;of</text>
</g>
<!-- Blue -->
<g id="node5" class="node">
<title>Blue</title>
<ellipse fill="lightcoral" stroke="black" cx="193.14" cy="-28.61" rx="28.61" ry="28.61"/>
<text text-anchor="middle" x="193.14" y="-23.18" font-family="Helvetica,sans-Serif" font-size="14.00">Blue</text>
</g>
<!-- B&#45;&gt;Blue -->
<g id="edge5" class="edge">
<title>B&#45;&gt;Blue</title>
<path fill="none" stroke="black" d="M87.67,-133.7C96.82,-126.44 109.35,-116.99 121.14,-109.72 136.36,-100.33 144.1,-103.97 157.14,-91.72 165.01,-84.32 171.67,-74.81 177.05,-65.47"/>
<polygon fill="black" stroke="black" points="180.03,-67.32 181.66,-56.85 173.86,-64.02 180.03,-67.32"/>
<text text-anchor="middle" x="196.43" y="-78.42" font-family="Times New Roman,serif" font-size="14.00">eye&#45;color</text>
</g>
<!-- C&#45;&gt;B -->
<g id="edge4" class="edge">
<title>C&#45;&gt;B</title>
<path fill="none" stroke="black" d="M127,-243.41C116.36,-237.36 102.92,-228.1 94.64,-216.41 86.08,-204.32 81.06,-188.66 78.13,-175.25"/>
<polygon fill="black" stroke="black" points="81.62,-174.87 76.34,-165.69 74.74,-176.16 81.62,-174.87"/>
<text text-anchor="middle" x="120.89" y="-203.11" font-family="Times New Roman,serif" font-size="14.00">sibling&#45;of</text>
</g>
<!-- Brown -->
<g id="node6" class="node">
<title>Brown</title>
<ellipse fill="lightcoral" stroke="black" cx="166.14" cy="-145.81" rx="36.09" ry="36.09"/>
<text text-anchor="middle" x="166.14" y="-140.39" font-family="Helvetica,sans-Serif" font-size="14.00">Brown</text>
</g>
<!-- C&#45;&gt;Brown -->
<g id="edge6" class="edge">
<title>C&#45;&gt;Brown</title>
<path fill="none" stroke="black" d="M146.83,-234.6C149.34,-223.19 152.79,-207.51 156.08,-192.55"/>
<polygon fill="black" stroke="black" points="159.49,-193.34 158.22,-182.82 152.65,-191.83 159.49,-193.34"/>
<text text-anchor="middle" x="179.45" y="-203.11" font-family="Times New Roman,serif" font-size="14.00">eye&#45;color</text>
</g>
<!-- D&#45;&gt;B -->
<g id="edge7" class="edge">
<title>D&#45;&gt;B</title>
<path fill="none" stroke="black" d="M43.29,-46.08C49.11,-64.72 58.68,-95.36 65.62,-117.57"/>
<polygon fill="black" stroke="black" points="62.2,-118.36 68.53,-126.86 68.89,-116.27 62.2,-118.36"/>
<text text-anchor="middle" x="105.22" y="-78.42" font-family="Times New Roman,serif" font-size="14.00">inherits&#45;eye&#45;color</text>
</g>
</g>
</svg>
