<?xml version="1.0" encoding="UTF-8" standalone="no"?>
<!DOCTYPE svg PUBLIC "-//W3C//DTD SVG 1.1//EN"
 "http://www.w3.org/Graphics/SVG/1.1/DTD/svg11.dtd">
<!-- Generated by graphviz version 12.2.1 (20241206.2353)
 -->
<!-- Title: Components Pages: 1 -->
<svg width="1364pt" height="465pt"
 viewBox="0.00 0.00 1364.04 465.29" xmlns="http://www.w3.org/2000/svg" xmlns:xlink="http://www.w3.org/1999/xlink">
<g id="graph0" class="graph" transform="scale(1 1) rotate(0) translate(4 461.29)">
<title>Components</title>
<polygon fill="white" stroke="none" points="-4,4 -4,-461.29 1360.04,-461.29 1360.04,4 -4,4"/>
<!-- Computer -->
<g id="node1" class="node">
<title>Computer</title>
<ellipse fill="lightcyan" stroke="black" cx="714.48" cy="-50.56" rx="50.56" ry="50.56"/>
<text text-anchor="middle" x="714.48" y="-45.14" font-family="Helvetica,sans-Serif" font-size="14.00">Computer</text>
</g>
<!-- Hardware -->
<g id="node2" class="node">
<title>Hardware</title>
<ellipse fill="lightcyan" stroke="black" cx="387.48" cy="-248.11" rx="49.57" ry="49.57"/>
<text text-anchor="middle" x="387.48" y="-242.68" font-family="Helvetica,sans-Serif" font-size="14.00">Hardware</text>
</g>
<!-- Hardware&#45;&gt;Computer -->
<g id="edge1" class="edge">
<title>Hardware&#45;&gt;Computer</title>
<path fill="none" stroke="black" d="M407.25,-202.65C416.75,-185.43 429.56,-166.74 445.48,-153.63 506.51,-103.36 594.91,-76.23 653.51,-62.85"/>
<polygon fill="black" stroke="black" points="653.96,-66.33 662.97,-60.76 652.45,-59.5 653.96,-66.33"/>
<text text-anchor="middle" x="505.1" y="-122.33" font-family="Times New Roman,serif" font-size="14.00">AKO</text>
</g>
<!-- Software -->
<g id="node3" class="node">
<title>Software</title>
<ellipse fill="lightcyan" stroke="black" cx="1041.48" cy="-248.11" rx="46.07" ry="46.07"/>
<text text-anchor="middle" x="1041.48" y="-242.68" font-family="Helvetica,sans-Serif" font-size="14.00">Software</text>
</g>
<!-- Software&#45;&gt;Computer -->
<g id="edge2" class="edge">
<title>Software&#45;&gt;Computer</title>
<path fill="none" stroke="black" d="M1024.41,-205.01C1015.39,-187.14 1002.76,-167.32 986.48,-153.63 925.09,-102.03 835.03,-75.15 775.59,-62.2"/>
<polygon fill="black" stroke="black" points="776.49,-58.81 765.98,-60.17 775.04,-65.66 776.49,-58.81"/>
<text text-anchor="middle" x="976.08" y="-122.33" font-family="Times New Roman,serif" font-size="14.00">AKO</text>
</g>
<!-- CPU -->
<g id="node4" class="node">
<title>CPU</title>
<ellipse fill="lightcyan" stroke="black" cx="263.48" cy="-426.19" rx="29.61" ry="29.61"/>
<text text-anchor="middle" x="263.48" y="-420.76" font-family="Helvetica,sans-Serif" font-size="14.00">CPU</text>
</g>
<!-- CPU&#45;&gt;Hardware -->
<g id="edge3" class="edge">
<title>CPU&#45;&gt;Hardware</title>
<path fill="none" stroke="black" d="M282.06,-402.88C295.42,-386.52 313.63,-363.6 328.48,-342.58 337.92,-329.21 347.62,-314.37 356.36,-300.52"/>
<polygon fill="black" stroke="black" points="359.1,-302.74 361.44,-292.41 353.17,-299.03 359.1,-302.74"/>
<text text-anchor="middle" x="329.52" y="-363.78" font-family="Times New Roman,serif" font-size="14.00">AKO</text>
</g>
<!-- executes instructions -->
<g id="node5" class="node">
<title>executes instructions</title>
<ellipse fill="lightcyan" stroke="black" cx="94.48" cy="-248.11" rx="94.48" ry="94.48"/>
<text text-anchor="middle" x="94.48" y="-242.68" font-family="Helvetica,sans-Serif" font-size="14.00">executes instructions</text>
</g>
<!-- CPU&#45;&gt;executes instructions -->
<g id="edge4" class="edge">
<title>CPU&#45;&gt;executes instructions</title>
<path fill="none" stroke="black" d="M243.43,-404.3C224.57,-384.65 195.16,-354 167.44,-325.12"/>
<polygon fill="black" stroke="black" points="170.17,-322.92 160.72,-318.13 165.12,-327.76 170.17,-322.92"/>
<text text-anchor="middle" x="222.91" y="-363.78" font-family="Times New Roman,serif" font-size="14.00">can</text>
</g>
<!-- GHz speed -->
<g id="node6" class="node">
<title>GHz speed</title>
<ellipse fill="lightcyan" stroke="black" cx="263.48" cy="-248.11" rx="56.05" ry="56.05"/>
<text text-anchor="middle" x="263.48" y="-242.68" font-family="Helvetica,sans-Serif" font-size="14.00">GHz speed</text>
</g>
<!-- CPU&#45;&gt;GHz speed -->
<g id="edge5" class="edge">
<title>CPU&#45;&gt;GHz speed</title>
<path fill="none" stroke="black" d="M263.48,-396.11C263.48,-374.3 263.48,-343.57 263.48,-315.83"/>
<polygon fill="black" stroke="black" points="266.98,-316.08 263.48,-306.08 259.98,-316.08 266.98,-316.08"/>
<text text-anchor="middle" x="272.48" y="-363.78" font-family="Times New Roman,serif" font-size="14.00">has</text>
</g>
<!-- RAM -->
<g id="node7" class="node">
<title>RAM</title>
<ellipse fill="lightcyan" stroke="black" cx="493.48" cy="-426.19" rx="31.1" ry="31.1"/>
<text text-anchor="middle" x="493.48" y="-420.76" font-family="Helvetica,sans-Serif" font-size="14.00">RAM</text>
</g>
<!-- RAM&#45;&gt;Hardware -->
<g id="edge6" class="edge">
<title>RAM&#45;&gt;Hardware</title>
<path fill="none" stroke="black" d="M475.8,-400.5C470.64,-393.06 465.09,-384.82 460.23,-377.08 445.07,-352.95 429.31,-325.56 416.36,-302.33"/>
<polygon fill="black" stroke="black" points="419.45,-300.69 411.54,-293.64 413.33,-304.08 419.45,-300.69"/>
<text text-anchor="middle" x="474.85" y="-363.78" font-family="Times New Roman,serif" font-size="14.00">AKO</text>
</g>
<!-- volatile -->
<g id="node8" class="node">
<title>volatile</title>
<ellipse fill="lightcyan" stroke="black" cx="493.48" cy="-248.11" rx="38.59" ry="38.59"/>
<text text-anchor="middle" x="493.48" y="-242.68" font-family="Helvetica,sans-Serif" font-size="14.00">volatile</text>
</g>
<!-- RAM&#45;&gt;volatile -->
<g id="edge7" class="edge">
<title>RAM&#45;&gt;volatile</title>
<path fill="none" stroke="black" d="M493.48,-394.92C493.48,-368.41 493.48,-329.4 493.48,-298.4"/>
<polygon fill="black" stroke="black" points="496.98,-298.46 493.48,-288.46 489.98,-298.46 496.98,-298.46"/>
<text text-anchor="middle" x="497.98" y="-363.78" font-family="Times New Roman,serif" font-size="14.00">is</text>
</g>
<!-- GB size -->
<g id="node9" class="node">
<title>GB size</title>
<ellipse fill="lightcyan" stroke="black" cx="592.48" cy="-248.11" rx="42.58" ry="42.58"/>
<text text-anchor="middle" x="592.48" y="-242.68" font-family="Helvetica,sans-Serif" font-size="14.00">GB size</text>
</g>
<!-- RAM&#45;&gt;GB size -->
<g id="edge8" class="edge">
<title>RAM&#45;&gt;GB size</title>
<path fill="none" stroke="black" d="M509.01,-398.88C518.49,-382.7 530.81,-361.51 541.48,-342.58 549.95,-327.53 559.04,-311.02 567.15,-296.11"/>
<polygon fill="black" stroke="black" points="570.18,-297.87 571.88,-287.41 564.03,-294.53 570.18,-297.87"/>
<text text-anchor="middle" x="540.13" y="-363.78" font-family="Times New Roman,serif" font-size="14.00">has</text>
</g>
<!-- OS -->
<g id="node10" class="node">
<title>OS</title>
<ellipse fill="lightcyan" stroke="black" cx="889.48" cy="-426.19" rx="24.12" ry="24.12"/>
<text text-anchor="middle" x="889.48" y="-420.76" font-family="Helvetica,sans-Serif" font-size="14.00">OS</text>
</g>
<!-- OS&#45;&gt;Software -->
<g id="edge9" class="edge">
<title>OS&#45;&gt;Software</title>
<path fill="none" stroke="black" d="M909.02,-411.61C929.9,-396.45 963.15,-370.36 986.48,-342.58 997.4,-329.58 1007.45,-314.14 1015.89,-299.59"/>
<polygon fill="black" stroke="black" points="1018.86,-301.45 1020.72,-291.02 1012.76,-298.01 1018.86,-301.45"/>
<text text-anchor="middle" x="982.11" y="-363.78" font-family="Times New Roman,serif" font-size="14.00">AKO</text>
</g>
<!-- manages hardware -->
<g id="node11" class="node">
<title>manages hardware</title>
<ellipse fill="lightcyan" stroke="black" cx="889.48" cy="-248.11" rx="87.99" ry="87.99"/>
<text text-anchor="middle" x="889.48" y="-242.68" font-family="Helvetica,sans-Serif" font-size="14.00">manages hardware</text>
</g>
<!-- OS&#45;&gt;manages hardware -->
<g id="edge10" class="edge">
<title>OS&#45;&gt;manages hardware</title>
<path fill="none" stroke="black" d="M889.48,-401.8C889.48,-387.44 889.48,-367.95 889.48,-347.71"/>
<polygon fill="black" stroke="black" points="892.98,-347.93 889.48,-337.93 885.98,-347.93 892.98,-347.93"/>
<text text-anchor="middle" x="898.85" y="-363.78" font-family="Times New Roman,serif" font-size="14.00">can</text>
</g>
<!-- user interface -->
<g id="node12" class="node">
<title>user interface</title>
<ellipse fill="lightcyan" stroke="black" cx="718.48" cy="-248.11" rx="65.04" ry="65.04"/>
<text text-anchor="middle" x="718.48" y="-242.68" font-family="Helvetica,sans-Serif" font-size="14.00">user interface</text>
</g>
<!-- OS&#45;&gt;user interface -->
<g id="edge11" class="edge">
<title>OS&#45;&gt;user interface</title>
<path fill="none" stroke="black" d="M870.66,-410.96C850.39,-395.25 817.66,-368.69 792.48,-342.58 782.72,-332.47 772.94,-321.16 763.83,-309.98"/>
<polygon fill="black" stroke="black" points="766.62,-307.86 757.63,-302.26 761.16,-312.25 766.62,-307.86"/>
<text text-anchor="middle" x="837.15" y="-363.78" font-family="Times New Roman,serif" font-size="14.00">has</text>
</g>
<!-- App -->
<g id="node13" class="node">
<title>App</title>
<ellipse fill="lightcyan" stroke="black" cx="1171.48" cy="-426.19" rx="26.61" ry="26.61"/>
<text text-anchor="middle" x="1171.48" y="-420.76" font-family="Helvetica,sans-Serif" font-size="14.00">App</text>
</g>
<!-- App&#45;&gt;Software -->
<g id="edge12" class="edge">
<title>App&#45;&gt;Software</title>
<path fill="none" stroke="black" d="M1152.73,-406.79C1136.79,-390.65 1113.81,-366.14 1096.48,-342.58 1086.5,-329.03 1076.79,-313.55 1068.37,-299.13"/>
<polygon fill="black" stroke="black" points="1071.53,-297.6 1063.51,-290.67 1065.46,-301.09 1071.53,-297.6"/>
<text text-anchor="middle" x="1138.25" y="-363.78" font-family="Times New Roman,serif" font-size="14.00">AKO</text>
</g>
<!-- performs task -->
<g id="node14" class="node">
<title>performs task</title>
<ellipse fill="lightcyan" stroke="black" cx="1171.48" cy="-248.11" rx="65.53" ry="65.53"/>
<text text-anchor="middle" x="1171.48" y="-242.68" font-family="Helvetica,sans-Serif" font-size="14.00">performs task</text>
</g>
<!-- App&#45;&gt;performs task -->
<g id="edge13" class="edge">
<title>App&#45;&gt;performs task</title>
<path fill="none" stroke="black" d="M1171.48,-399.21C1171.48,-379.62 1171.48,-351.69 1171.48,-325.23"/>
<polygon fill="black" stroke="black" points="1174.98,-325.52 1171.48,-315.52 1167.98,-325.52 1174.98,-325.52"/>
<text text-anchor="middle" x="1180.85" y="-363.78" font-family="Times New Roman,serif" font-size="14.00">can</text>
</g>
<!-- installable -->
<g id="node15" class="node">
<title>installable</title>
<ellipse fill="lightcyan" stroke="black" cx="1305.48" cy="-248.11" rx="50.56" ry="50.56"/>
<text text-anchor="middle" x="1305.48" y="-242.68" font-family="Helvetica,sans-Serif" font-size="14.00">installable</text>
</g>
<!-- App&#45;&gt;installable -->
<g id="edge14" class="edge">
<title>App&#45;&gt;installable</title>
<path fill="none" stroke="black" d="M1190.04,-406.65C1205.86,-390.42 1228.77,-365.87 1246.48,-342.58 1256.1,-329.92 1265.68,-315.66 1274.23,-302.16"/>
<polygon fill="black" stroke="black" points="1277.14,-304.12 1279.46,-293.79 1271.2,-300.42 1277.14,-304.12"/>
<text text-anchor="middle" x="1235.67" y="-363.78" font-family="Times New Roman,serif" font-size="14.00">is</text>
</g>
</g>
</svg>
