<?xml version="1.0" encoding="UTF-8" standalone="no"?>
<!DOCTYPE svg PUBLIC "-//W3C//DTD SVG 1.1//EN"
 "http://www.w3.org/Graphics/SVG/1.1/DTD/svg11.dtd">
<!-- Generated by graphviz version 12.2.1 (20241206.2353)
 -->
<!-- Title: Fruits Pages: 1 -->
<svg width="1265pt" height="419pt"
 viewBox="0.00 0.00 1264.64 419.38" xmlns="http://www.w3.org/2000/svg" xmlns:xlink="http://www.w3.org/1999/xlink">
<g id="graph0" class="graph" transform="scale(1 1) rotate(0) translate(4 415.38)">
<title>Fruits</title>
<polygon fill="white" stroke="none" points="-4,4 -4,-415.38 1260.64,-415.38 1260.64,4 -4,4"/>
<!-- Fruits -->
<g id="node1" class="node">
<title>Fruits</title>
<ellipse fill="#ffec8b" stroke="black" cx="754.05" cy="-33.1" rx="33.1" ry="33.1"/>
<text text-anchor="middle" x="754.05" y="-27.68" font-family="Helvetica,sans-Serif" font-size="14.00">Fruits</text>
</g>
<!-- Citrus -->
<g id="node2" class="node">
<title>Citrus</title>
<ellipse fill="#ffec8b" stroke="black" cx="411.05" cy="-184.73" rx="34.1" ry="34.1"/>
<text text-anchor="middle" x="411.05" y="-179.31" font-family="Helvetica,sans-Serif" font-size="14.00">Citrus</text>
</g>
<!-- Citrus&#45;&gt;Fruits -->
<g id="edge1" class="edge">
<title>Citrus&#45;&gt;Fruits</title>
<path fill="none" stroke="black" d="M425.13,-153.3C432.22,-140.96 441.92,-127.56 454.05,-118.7 531.86,-61.89 646.53,-43.18 709.17,-37.05"/>
<polygon fill="black" stroke="black" points="709.45,-40.54 719.1,-36.15 708.82,-33.57 709.45,-40.54"/>
<text text-anchor="middle" x="527.15" y="-87.4" font-family="Times New Roman,serif" font-size="14.00">AKO</text>
</g>
<!-- Berries -->
<g id="node3" class="node">
<title>Berries</title>
<ellipse fill="#ffec8b" stroke="black" cx="754.05" cy="-184.73" rx="39.09" ry="39.09"/>
<text text-anchor="middle" x="754.05" y="-179.31" font-family="Helvetica,sans-Serif" font-size="14.00">Berries</text>
</g>
<!-- Berries&#45;&gt;Fruits -->
<g id="edge2" class="edge">
<title>Berries&#45;&gt;Fruits</title>
<path fill="none" stroke="black" d="M754.05,-145.2C754.05,-124.6 754.05,-99.15 754.05,-77.81"/>
<polygon fill="black" stroke="black" points="757.55,-77.95 754.05,-67.95 750.55,-77.95 757.55,-77.95"/>
<text text-anchor="middle" x="768.68" y="-87.4" font-family="Times New Roman,serif" font-size="14.00">AKO</text>
</g>
<!-- Drupes -->
<g id="node4" class="node">
<title>Drupes</title>
<ellipse fill="#ffec8b" stroke="black" cx="1217.05" cy="-184.73" rx="39.59" ry="39.59"/>
<text text-anchor="middle" x="1217.05" y="-179.31" font-family="Helvetica,sans-Serif" font-size="14.00">Drupes</text>
</g>
<!-- Drupes&#45;&gt;Fruits -->
<g id="edge3" class="edge">
<title>Drupes&#45;&gt;Fruits</title>
<path fill="none" stroke="black" d="M1198.71,-149.47C1190.99,-138.06 1181,-126.32 1169.05,-118.7 1107.61,-79.48 892.41,-50.27 798.47,-39.08"/>
<polygon fill="black" stroke="black" points="798.95,-35.62 788.61,-37.92 798.13,-42.57 798.95,-35.62"/>
<text text-anchor="middle" x="1136.91" y="-87.4" font-family="Times New Roman,serif" font-size="14.00">AKO</text>
</g>
<!-- Orange -->
<g id="node5" class="node">
<title>Orange</title>
<ellipse fill="#ffec8b" stroke="black" cx="253.05" cy="-357.33" rx="41.08" ry="41.08"/>
<text text-anchor="middle" x="253.05" y="-351.9" font-family="Helvetica,sans-Serif" font-size="14.00">Orange</text>
</g>
<!-- Orange&#45;&gt;Citrus -->
<g id="edge4" class="edge">
<title>Orange&#45;&gt;Citrus</title>
<path fill="none" stroke="black" d="M284.78,-330.86C309.05,-310.56 342.55,-280.67 368.05,-250.77 375.02,-242.6 381.8,-233.25 387.83,-224.24"/>
<polygon fill="black" stroke="black" points="390.72,-226.22 393.24,-215.93 384.85,-222.4 390.72,-226.22"/>
<text text-anchor="middle" x="365.56" y="-271.97" font-family="Times New Roman,serif" font-size="14.00">AKO</text>
</g>
<!-- peelable -->
<g id="node6" class="node">
<title>peelable</title>
<ellipse fill="#ffec8b" stroke="black" cx="314.05" cy="-184.73" rx="44.58" ry="44.58"/>
<text text-anchor="middle" x="314.05" y="-179.31" font-family="Helvetica,sans-Serif" font-size="14.00">peelable</text>
</g>
<!-- Orange&#45;&gt;peelable -->
<g id="edge5" class="edge">
<title>Orange&#45;&gt;peelable</title>
<path fill="none" stroke="black" d="M266.59,-318.47C275.07,-294.76 286.11,-263.89 295.41,-237.88"/>
<polygon fill="black" stroke="black" points="298.69,-239.09 298.76,-228.5 292.1,-236.73 298.69,-239.09"/>
<text text-anchor="middle" x="292.55" y="-271.97" font-family="Times New Roman,serif" font-size="14.00">has</text>
</g>
<!-- sweet taste -->
<g id="node7" class="node">
<title>sweet taste</title>
<ellipse fill="#ffec8b" stroke="black" cx="56.05" cy="-184.73" rx="56.05" ry="56.05"/>
<text text-anchor="middle" x="56.05" y="-179.31" font-family="Helvetica,sans-Serif" font-size="14.00">sweet taste</text>
</g>
<!-- Orange&#45;&gt;sweet taste -->
<g id="edge6" class="edge">
<title>Orange&#45;&gt;sweet taste</title>
<path fill="none" stroke="black" d="M220.5,-331.91C193.27,-311.11 153.74,-280.03 121.05,-250.77 115,-245.35 108.79,-239.52 102.72,-233.65"/>
<polygon fill="black" stroke="black" points="105.23,-231.21 95.64,-226.72 100.33,-236.22 105.23,-231.21"/>
<text text-anchor="middle" x="168.88" y="-271.97" font-family="Times New Roman,serif" font-size="14.00">has</text>
</g>
<!-- orange color -->
<g id="node8" class="node">
<title>orange color</title>
<ellipse fill="#ffec8b" stroke="black" cx="191.05" cy="-184.73" rx="60.54" ry="60.54"/>
<text text-anchor="middle" x="191.05" y="-179.31" font-family="Helvetica,sans-Serif" font-size="14.00">orange color</text>
</g>
<!-- Orange&#45;&gt;orange color -->
<g id="edge7" class="edge">
<title>Orange&#45;&gt;orange color</title>
<path fill="none" stroke="black" d="M239.29,-318.47C232.27,-299.15 223.52,-275.07 215.41,-252.75"/>
<polygon fill="black" stroke="black" points="218.71,-251.58 212,-243.38 212.13,-253.97 218.71,-251.58"/>
<text text-anchor="middle" x="234.77" y="-271.97" font-family="Times New Roman,serif" font-size="14.00">has</text>
</g>
<!-- Lemon -->
<g id="node9" class="node">
<title>Lemon</title>
<ellipse fill="#ffec8b" stroke="black" cx="521.05" cy="-357.33" rx="38.59" ry="38.59"/>
<text text-anchor="middle" x="521.05" y="-351.9" font-family="Helvetica,sans-Serif" font-size="14.00">Lemon</text>
</g>
<!-- Lemon&#45;&gt;Citrus -->
<g id="edge8" class="edge">
<title>Lemon&#45;&gt;Citrus</title>
<path fill="none" stroke="black" d="M500.36,-324.24C481.89,-295.59 454.81,-253.6 435.32,-223.37"/>
<polygon fill="black" stroke="black" points="438.46,-221.78 430.1,-215.27 432.58,-225.57 438.46,-221.78"/>
<text text-anchor="middle" x="487.26" y="-271.97" font-family="Times New Roman,serif" font-size="14.00">AKO</text>
</g>
<!-- sour taste -->
<g id="node10" class="node">
<title>sour taste</title>
<ellipse fill="#ffec8b" stroke="black" cx="647.05" cy="-184.73" rx="50.07" ry="50.07"/>
<text text-anchor="middle" x="647.05" y="-179.31" font-family="Helvetica,sans-Serif" font-size="14.00">sour taste</text>
</g>
<!-- Lemon&#45;&gt;sour taste -->
<g id="edge9" class="edge">
<title>Lemon&#45;&gt;sour taste</title>
<path fill="none" stroke="black" d="M543.58,-325.83C562.23,-300.58 589.09,-264.21 610.77,-234.86"/>
<polygon fill="black" stroke="black" points="613.58,-236.94 616.71,-226.82 607.95,-232.78 613.58,-236.94"/>
<text text-anchor="middle" x="593.05" y="-271.97" font-family="Times New Roman,serif" font-size="14.00">has</text>
</g>
<!-- yellow color -->
<g id="node11" class="node">
<title>yellow color</title>
<ellipse fill="#ffec8b" stroke="black" cx="521.05" cy="-184.73" rx="57.55" ry="57.55"/>
<text text-anchor="middle" x="521.05" y="-179.31" font-family="Helvetica,sans-Serif" font-size="14.00">yellow color</text>
</g>
<!-- Lemon&#45;&gt;yellow color -->
<g id="edge10" class="edge">
<title>Lemon&#45;&gt;yellow color</title>
<path fill="none" stroke="black" d="M521.05,-318.47C521.05,-299.49 521.05,-275.92 521.05,-253.94"/>
<polygon fill="black" stroke="black" points="524.55,-254.13 521.05,-244.13 517.55,-254.13 524.55,-254.13"/>
<text text-anchor="middle" x="530.05" y="-271.97" font-family="Times New Roman,serif" font-size="14.00">has</text>
</g>
<!-- Strawberry -->
<g id="node12" class="node">
<title>Strawberry</title>
<ellipse fill="#ffec8b" stroke="black" cx="877.05" cy="-357.33" rx="54.06" ry="54.06"/>
<text text-anchor="middle" x="877.05" y="-351.9" font-family="Helvetica,sans-Serif" font-size="14.00">Strawberry</text>
</g>
<!-- Strawberry&#45;&gt;Berries -->
<g id="edge11" class="edge">
<title>Strawberry&#45;&gt;Berries</title>
<path fill="none" stroke="black" d="M845.7,-312.84C826.49,-286.2 802.07,-252.33 783.27,-226.25"/>
<polygon fill="black" stroke="black" points="786.19,-224.32 777.5,-218.26 780.51,-228.41 786.19,-224.32"/>
<text text-anchor="middle" x="837.54" y="-271.97" font-family="Times New Roman,serif" font-size="14.00">AKO</text>
</g>
<!-- seeds outside -->
<g id="node13" class="node">
<title>seeds outside</title>
<ellipse fill="#ffec8b" stroke="black" cx="877.05" cy="-184.73" rx="66.03" ry="66.03"/>
<text text-anchor="middle" x="877.05" y="-179.31" font-family="Helvetica,sans-Serif" font-size="14.00">seeds outside</text>
</g>
<!-- Strawberry&#45;&gt;seeds outside -->
<g id="edge12" class="edge">
<title>Strawberry&#45;&gt;seeds outside</title>
<path fill="none" stroke="black" d="M877.05,-302.82C877.05,-289.99 877.05,-276.05 877.05,-262.4"/>
<polygon fill="black" stroke="black" points="880.55,-262.55 877.05,-252.55 873.55,-262.55 880.55,-262.55"/>
<text text-anchor="middle" x="886.05" y="-271.97" font-family="Times New Roman,serif" font-size="14.00">has</text>
</g>
<!-- red color -->
<g id="node14" class="node">
<title>red color</title>
<ellipse fill="#ffec8b" stroke="black" cx="1007.05" cy="-184.73" rx="45.57" ry="45.57"/>
<text text-anchor="middle" x="1007.05" y="-179.31" font-family="Helvetica,sans-Serif" font-size="14.00">red color</text>
</g>
<!-- Strawberry&#45;&gt;red color -->
<g id="edge13" class="edge">
<title>Strawberry&#45;&gt;red color</title>
<path fill="none" stroke="black" d="M909.52,-313.72C928.9,-288.29 953.47,-256.05 973.1,-230.29"/>
<polygon fill="black" stroke="black" points="975.63,-232.75 978.9,-222.67 970.06,-228.51 975.63,-232.75"/>
<text text-anchor="middle" x="951.05" y="-271.97" font-family="Times New Roman,serif" font-size="14.00">has</text>
</g>
<!-- Cherry -->
<g id="node15" class="node">
<title>Cherry</title>
<ellipse fill="#ffec8b" stroke="black" cx="1115.05" cy="-357.33" rx="37.59" ry="37.59"/>
<text text-anchor="middle" x="1115.05" y="-351.9" font-family="Helvetica,sans-Serif" font-size="14.00">Cherry</text>
</g>
<!-- Cherry&#45;&gt;Drupes -->
<g id="edge14" class="edge">
<title>Cherry&#45;&gt;Drupes</title>
<path fill="none" stroke="black" d="M1134,-324.64C1150.1,-297.72 1173.36,-258.81 1191.17,-229.02"/>
<polygon fill="black" stroke="black" points="1194.08,-230.97 1196.21,-220.59 1188.08,-227.38 1194.08,-230.97"/>
<text text-anchor="middle" x="1180.68" y="-271.97" font-family="Times New Roman,serif" font-size="14.00">AKO</text>
</g>
<!-- Cherry&#45;&gt;red color -->
<g id="edge16" class="edge">
<title>Cherry&#45;&gt;red color</title>
<path fill="none" stroke="black" d="M1095.24,-325.04C1079,-299.37 1055.73,-262.62 1037.17,-233.31"/>
<polygon fill="black" stroke="black" points="1040.2,-231.54 1031.89,-224.96 1034.28,-235.28 1040.2,-231.54"/>
<text text-anchor="middle" x="1076.52" y="-271.97" font-family="Times New Roman,serif" font-size="14.00">has</text>
</g>
<!-- stone pit -->
<g id="node16" class="node">
<title>stone pit</title>
<ellipse fill="#ffec8b" stroke="black" cx="1115.05" cy="-184.73" rx="44.58" ry="44.58"/>
<text text-anchor="middle" x="1115.05" y="-179.31" font-family="Helvetica,sans-Serif" font-size="14.00">stone pit</text>
</g>
<!-- Cherry&#45;&gt;stone pit -->
<g id="edge15" class="edge">
<title>Cherry&#45;&gt;stone pit</title>
<path fill="none" stroke="black" d="M1115.05,-319.31C1115.05,-296.45 1115.05,-266.69 1115.05,-241.07"/>
<polygon fill="black" stroke="black" points="1118.55,-241.14 1115.05,-231.14 1111.55,-241.14 1118.55,-241.14"/>
<text text-anchor="middle" x="1124.05" y="-271.97" font-family="Times New Roman,serif" font-size="14.00">has</text>
</g>
</g>
</svg>
