<?xml version="1.0" encoding="UTF-8" standalone="no"?>
<!DOCTYPE svg PUBLIC "-//W3C//DTD SVG 1.1//EN"
 "http://www.w3.org/Graphics/SVG/1.1/DTD/svg11.dtd">
<!-- Generated by graphviz version 12.2.1 (20241206.2353)
 -->
<!-- Title: BookFrames Pages: 1 -->
<svg width="388pt" height="217pt"
 viewBox="0.00 0.00 388.38 217.25" xmlns="http://www.w3.org/2000/svg" xmlns:xlink="http://www.w3.org/1999/xlink">
<g id="graph0" class="graph" transform="scale(1 1) rotate(0) translate(4 213.25)">
<title>BookFrames</title>
<polygon fill="white" stroke="none" points="-4,4 -4,-213.25 384.38,-213.25 384.38,4 -4,4"/>
<!-- BookFrame -->
<g id="node1" class="node">
<title>BookFrame</title>
<polygon fill="lightsteelblue" stroke="black" points="137.62,-0.5 137.62,-36.5 227.88,-36.5 227.88,-0.5 137.62,-0.5"/>
<text text-anchor="middle" x="182.75" y="-18.2" font-family="Helvetica,sans-Serif" font-size="14.00">Book Frame</text>
<polyline fill="none" stroke="black" points="137.62,-10.75 227.88,-10.75"/>
<polyline fill="none" stroke="black" points="137.62,-8.75 227.88,-8.75"/>
<polyline fill="none" stroke="black" points="137.62,-5.75 227.88,-5.75"/>
<polyline fill="none" stroke="black" points="137.62,-3.75 227.88,-3.75"/>
</g>
<!-- Book1 -->
<g id="node2" class="node">
<title>Book1</title>
<polygon fill="lightsteelblue" stroke="black" points="0,-90 0,-208.75 167.5,-208.75 167.5,-90 0,-90"/>
<text text-anchor="middle" x="83.75" y="-191.45" font-family="Helvetica,sans-Serif" font-size="14.00">Book Instance: 1984</text>
<polyline fill="none" stroke="black" points="0,-185 167.5,-185"/>
<text text-anchor="middle" x="83.75" y="-167.7" font-family="Helvetica,sans-Serif" font-size="14.00">Name: &quot;1984&quot;</text>
<polyline fill="none" stroke="black" points="0,-161.25 167.5,-161.25"/>
<text text-anchor="middle" x="83.75" y="-143.95" font-family="Helvetica,sans-Serif" font-size="14.00">Author: &quot;George Orwell&quot;</text>
<polyline fill="none" stroke="black" points="0,-137.5 167.5,-137.5"/>
<text text-anchor="middle" x="83.75" y="-120.2" font-family="Helvetica,sans-Serif" font-size="14.00">ISBN: &quot;978&#45;0451524935&quot;</text>
<polyline fill="none" stroke="black" points="0,-113.75 167.5,-113.75"/>
<text text-anchor="middle" x="83.75" y="-96.45" font-family="Helvetica,sans-Serif" font-size="14.00">Genre: &quot;Dystopian&quot;</text>
</g>
<!-- Book1&#45;&gt;BookFrame -->
<g id="edge1" class="edge">
<title>Book1&#45;&gt;BookFrame</title>
<path fill="none" stroke="black" stroke-dasharray="5,2" d="M128.9,-89.59C140.69,-74.25 152.81,-58.48 162.55,-45.79"/>
<polygon fill="black" stroke="black" points="165.26,-48.01 168.58,-37.95 159.71,-43.75 165.26,-48.01"/>
<text text-anchor="middle" x="183.5" y="-58.2" font-family="Times New Roman,serif" font-size="14.00">instance&#45;of</text>
</g>
<!-- Book2 -->
<g id="node3" class="node">
<title>Book2</title>
<polygon fill="lightsteelblue" stroke="black" points="185.12,-90 185.12,-208.75 380.38,-208.75 380.38,-90 185.12,-90"/>
<text text-anchor="middle" x="282.75" y="-191.45" font-family="Helvetica,sans-Serif" font-size="14.00">Book Instance: Mockingbird</text>
<polyline fill="none" stroke="black" points="185.12,-185 380.38,-185"/>
<text text-anchor="middle" x="282.75" y="-167.7" font-family="Helvetica,sans-Serif" font-size="14.00">Name: &quot;To Kill a Mockingbird&quot;</text>
<polyline fill="none" stroke="black" points="185.12,-161.25 380.38,-161.25"/>
<text text-anchor="middle" x="282.75" y="-143.95" font-family="Helvetica,sans-Serif" font-size="14.00">Author: &quot;Harper Lee&quot;</text>
<polyline fill="none" stroke="black" points="185.12,-137.5 380.38,-137.5"/>
<text text-anchor="middle" x="282.75" y="-120.2" font-family="Helvetica,sans-Serif" font-size="14.00">ISBN: &quot;978&#45;0061120084&quot;</text>
<polyline fill="none" stroke="black" points="185.12,-113.75 380.38,-113.75"/>
<text text-anchor="middle" x="282.75" y="-96.45" font-family="Helvetica,sans-Serif" font-size="14.00">Genre: &quot;Fiction&quot;</text>
</g>
<!-- Book2&#45;&gt;BookFrame -->
<g id="edge2" class="edge">
<title>Book2&#45;&gt;BookFrame</title>
<path fill="none" stroke="black" stroke-dasharray="5,2" d="M244.37,-89.96C235.96,-78.11 226.84,-65.94 217.75,-55 214.91,-51.58 211.79,-48.1 208.64,-44.72"/>
<polygon fill="black" stroke="black" points="211.33,-42.48 201.87,-37.73 206.3,-47.35 211.33,-42.48"/>
<text text-anchor="middle" x="259.34" y="-58.2" font-family="Times New Roman,serif" font-size="14.00">instance&#45;of</text>
</g>
</g>
</svg>
