<?xml version="1.0" encoding="UTF-8" standalone="no"?>
<!DOCTYPE svg PUBLIC "-//W3C//DTD SVG 1.1//EN"
 "http://www.w3.org/Graphics/SVG/1.1/DTD/svg11.dtd">
<!-- Generated by graphviz version 12.2.1 (20241206.2353)
 -->
<!-- Title: ResolutionTweety Pages: 1 -->
<svg width="790pt" height="342pt"
 viewBox="0.00 0.00 790.00 342.00" xmlns="http://www.w3.org/2000/svg" xmlns:xlink="http://www.w3.org/1999/xlink">
<g id="graph0" class="graph" transform="scale(1 1) rotate(0) translate(4 338)">
<title>ResolutionTweety</title>
<polygon fill="white" stroke="none" points="-4,4 -4,-338 786,-338 786,4 -4,4"/>
<g id="clust1" class="cluster">
<title>cluster_premises</title>
</g>
<!-- P1 -->
<g id="node1" class="node">
<title>P1</title>
<path fill="#f9f9f9" stroke="#444444" d="M143.88,-318C143.88,-318 28.12,-318 28.12,-318 22.12,-318 16.12,-312 16.12,-306 16.12,-306 16.12,-294 16.12,-294 16.12,-288 22.12,-282 28.12,-282 28.12,-282 143.88,-282 143.88,-282 149.88,-282 155.88,-288 155.88,-294 155.88,-294 155.88,-306 155.88,-306 155.88,-312 149.88,-318 143.88,-318"/>
<text text-anchor="middle" x="86" y="-295.73" font-family="Helvetica,sans-Serif" font-size="12.00">¬Penguin(x) ∨ Bird(x)</text>
</g>
<!-- D1 -->
<g id="node6" class="node">
<title>D1</title>
<path fill="#f9f9f9" stroke="#444444" d="M281.75,-224C281.75,-224 222.25,-224 222.25,-224 216.25,-224 210.25,-218 210.25,-212 210.25,-212 210.25,-200 210.25,-200 210.25,-194 216.25,-188 222.25,-188 222.25,-188 281.75,-188 281.75,-188 287.75,-188 293.75,-194 293.75,-200 293.75,-200 293.75,-212 293.75,-212 293.75,-218 287.75,-224 281.75,-224"/>
<text text-anchor="middle" x="252" y="-201.72" font-family="Helvetica,sans-Serif" font-size="12.00">Bird(Tweety)</text>
</g>
<!-- P1&#45;&gt;D1 -->
<g id="edge1" class="edge">
<title>P1&#45;&gt;D1</title>
<path fill="none" stroke="black" d="M117.22,-281.7C143.69,-267.03 181.84,-245.88 210.81,-229.83"/>
<polygon fill="black" stroke="black" points="212.26,-233.03 219.31,-225.12 208.87,-226.9 212.26,-233.03"/>
<text text-anchor="middle" x="140.39" y="-257.51" font-family="Times New Roman,serif" font-size="10.00">{x/Tweety}</text>
</g>
<!-- P2 -->
<g id="node2" class="node">
<title>P2</title>
<path fill="#f9f9f9" stroke="#444444" d="M293.38,-318C293.38,-318 210.62,-318 210.62,-318 204.62,-318 198.62,-312 198.62,-306 198.62,-306 198.62,-294 198.62,-294 198.62,-288 204.62,-282 210.62,-282 210.62,-282 293.38,-282 293.38,-282 299.38,-282 305.38,-288 305.38,-294 305.38,-294 305.38,-306 305.38,-306 305.38,-312 299.38,-318 293.38,-318"/>
<text text-anchor="middle" x="252" y="-295.73" font-family="Helvetica,sans-Serif" font-size="12.00">Penguin(Tweety)</text>
</g>
<!-- P2&#45;&gt;D1 -->
<g id="edge2" class="edge">
<title>P2&#45;&gt;D1</title>
<path fill="none" stroke="black" d="M252,-281.7C252,-268.72 252,-250.66 252,-235.56"/>
<polygon fill="black" stroke="black" points="255.5,-235.74 252,-225.74 248.5,-235.74 255.5,-235.74"/>
</g>
<!-- P3 -->
<g id="node3" class="node">
<title>P3</title>
<path fill="#f9f9f9" stroke="#444444" d="M447.62,-318C447.62,-318 360.38,-318 360.38,-318 354.38,-318 348.38,-312 348.38,-306 348.38,-306 348.38,-294 348.38,-294 348.38,-288 354.38,-282 360.38,-282 360.38,-282 447.62,-282 447.62,-282 453.62,-282 459.62,-288 459.62,-294 459.62,-294 459.62,-306 459.62,-306 459.62,-312 453.62,-318 447.62,-318"/>
<text text-anchor="middle" x="404" y="-295.73" font-family="Helvetica,sans-Serif" font-size="12.00">¬Bird(y) ∨ Fly(y)</text>
</g>
<!-- D2 -->
<g id="node7" class="node">
<title>D2</title>
<path fill="#f9f9f9" stroke="#444444" d="M431.12,-130C431.12,-130 376.88,-130 376.88,-130 370.88,-130 364.88,-124 364.88,-118 364.88,-118 364.88,-106 364.88,-106 364.88,-100 370.88,-94 376.88,-94 376.88,-94 431.12,-94 431.12,-94 437.12,-94 443.12,-100 443.12,-106 443.12,-106 443.12,-118 443.12,-118 443.12,-124 437.12,-130 431.12,-130"/>
<text text-anchor="middle" x="404" y="-107.72" font-family="Helvetica,sans-Serif" font-size="12.00">Fly(Tweety)</text>
</g>
<!-- P3&#45;&gt;D2 -->
<g id="edge3" class="edge">
<title>P3&#45;&gt;D2</title>
<path fill="none" stroke="black" d="M404,-281.5C404,-249.36 404,-180.66 404,-141.63"/>
<polygon fill="black" stroke="black" points="407.5,-141.83 404,-131.83 400.5,-141.83 407.5,-141.83"/>
<text text-anchor="middle" x="380.38" y="-213.32" font-family="Times New Roman,serif" font-size="10.00">{y/Tweety}</text>
</g>
<!-- P4 -->
<g id="node4" class="node">
<title>P4</title>
<path fill="#f9f9f9" stroke="#444444" d="M569.12,-318C569.12,-318 514.88,-318 514.88,-318 508.88,-318 502.88,-312 502.88,-306 502.88,-306 502.88,-294 502.88,-294 502.88,-288 508.88,-282 514.88,-282 514.88,-282 569.12,-282 569.12,-282 575.12,-282 581.12,-288 581.12,-294 581.12,-294 581.12,-306 581.12,-306 581.12,-312 575.12,-318 569.12,-318"/>
<text text-anchor="middle" x="542" y="-295.73" font-family="Helvetica,sans-Serif" font-size="12.00">Fly(Tweety)</text>
</g>
<!-- P5 -->
<g id="node5" class="node">
<title>P5</title>
<path fill="#f9f9f9" stroke="#444444" d="M753.62,-318C753.62,-318 636.38,-318 636.38,-318 630.38,-318 624.38,-312 624.38,-306 624.38,-306 624.38,-294 624.38,-294 624.38,-288 630.38,-282 636.38,-282 636.38,-282 753.62,-282 753.62,-282 759.62,-282 765.62,-288 765.62,-294 765.62,-294 765.62,-306 765.62,-306 765.62,-312 759.62,-318 753.62,-318"/>
<text text-anchor="middle" x="695" y="-295.73" font-family="Helvetica,sans-Serif" font-size="12.00">¬Penguin(z) ∨ ¬Fly(z)</text>
</g>
<!-- CONTRA -->
<g id="node8" class="node">
<title>CONTRA</title>
<path fill="#ffe6e6" stroke="#cc0000" d="M471,-36C471,-36 441,-36 441,-36 435,-36 429,-30 429,-24 429,-24 429,-12 429,-12 429,-6 435,0 441,0 441,0 471,0 471,0 477,0 483,-6 483,-12 483,-12 483,-24 483,-24 483,-30 477,-36 471,-36"/>
<text text-anchor="middle" x="456" y="-12.97" font-family="Helvetica,sans-Serif" font-size="12.00">⊥</text>
</g>
<!-- P5&#45;&gt;CONTRA -->
<g id="edge6" class="edge">
<title>P5&#45;&gt;CONTRA</title>
<path fill="none" stroke="black" d="M680.41,-281.91C639.99,-234.56 526.39,-101.46 478.13,-44.93"/>
<polygon fill="black" stroke="black" points="480.84,-42.71 471.69,-37.38 475.52,-47.26 480.84,-42.71"/>
<text text-anchor="middle" x="556.02" y="-165.17" font-family="Times New Roman,serif" font-size="10.00">{z/Tweety}</text>
</g>
<!-- D1&#45;&gt;D2 -->
<g id="edge4" class="edge">
<title>D1&#45;&gt;D2</title>
<path fill="none" stroke="black" d="M280.59,-187.7C304.61,-173.16 339.15,-152.25 365.58,-136.25"/>
<polygon fill="black" stroke="black" points="367.24,-139.34 373.99,-131.17 363.62,-133.35 367.24,-139.34"/>
</g>
<!-- D2&#45;&gt;CONTRA -->
<g id="edge5" class="edge">
<title>D2&#45;&gt;CONTRA</title>
<path fill="none" stroke="black" d="M413.78,-93.7C421.33,-80.33 431.93,-61.59 440.62,-46.22"/>
<polygon fill="black" stroke="black" points="443.64,-47.97 445.52,-37.54 437.55,-44.53 443.64,-47.97"/>
</g>
</g>
</svg>
