<?xml version="1.0" encoding="UTF-8" standalone="no"?>
<!DOCTYPE svg PUBLIC "-//W3C//DTD SVG 1.1//EN"
 "http://www.w3.org/Graphics/SVG/1.1/DTD/svg11.dtd">
<!-- Generated by graphviz version 12.2.1 (20241206.2353)
 -->
<!-- Title: CourseFrames Pages: 1 -->
<svg width="454pt" height="217pt"
 viewBox="0.00 0.00 454.00 217.25" xmlns="http://www.w3.org/2000/svg" xmlns:xlink="http://www.w3.org/1999/xlink">
<g id="graph0" class="graph" transform="scale(1 1) rotate(0) translate(4 213.25)">
<title>CourseFrames</title>
<polygon fill="white" stroke="none" points="-4,4 -4,-213.25 450,-213.25 450,4 -4,4"/>
<!-- CourseFrame -->
<g id="node1" class="node">
<title>CourseFrame</title>
<polygon fill="lightgreen" stroke="black" points="164,-0.5 164,-36.5 267,-36.5 267,-0.5 164,-0.5"/>
<text text-anchor="middle" x="215.5" y="-18.2" font-family="Helvetica,sans-Serif" font-size="14.00">Course Frame</text>
<polyline fill="none" stroke="black" points="164,-10.75 267,-10.75"/>
<polyline fill="none" stroke="black" points="164,-8.75 267,-8.75"/>
<polyline fill="none" stroke="black" points="164,-5.75 267,-5.75"/>
<polyline fill="none" stroke="black" points="164,-3.75 267,-3.75"/>
</g>
<!-- Course1 -->
<g id="node2" class="node">
<title>Course1</title>
<polygon fill="lightgreen" stroke="black" points="0,-90 0,-208.75 199,-208.75 199,-90 0,-90"/>
<text text-anchor="middle" x="99.5" y="-191.45" font-family="Helvetica,sans-Serif" font-size="14.00">Course Instance: CS101</text>
<polyline fill="none" stroke="black" points="0,-185 199,-185"/>
<text text-anchor="middle" x="99.5" y="-167.7" font-family="Helvetica,sans-Serif" font-size="14.00">Code: CS101</text>
<polyline fill="none" stroke="black" points="0,-161.25 199,-161.25"/>
<text text-anchor="middle" x="99.5" y="-143.95" font-family="Helvetica,sans-Serif" font-size="14.00">Title: &quot;Intro to Programming&quot;</text>
<polyline fill="none" stroke="black" points="0,-137.5 199,-137.5"/>
<text text-anchor="middle" x="99.5" y="-120.2" font-family="Helvetica,sans-Serif" font-size="14.00">Credits: 3</text>
<polyline fill="none" stroke="black" points="0,-113.75 199,-113.75"/>
<text text-anchor="middle" x="99.5" y="-96.45" font-family="Helvetica,sans-Serif" font-size="14.00">Instructor: &quot;Dr. Amina Hassan&quot;</text>
</g>
<!-- Course1&#45;&gt;CourseFrame -->
<g id="edge1" class="edge">
<title>Course1&#45;&gt;CourseFrame</title>
<path fill="none" stroke="black" stroke-dasharray="5,2" d="M152.41,-89.59C166.49,-73.95 180.97,-57.86 192.5,-45.05"/>
<polygon fill="black" stroke="black" points="194.87,-47.65 198.96,-37.87 189.67,-42.96 194.87,-47.65"/>
<text text-anchor="middle" x="211.22" y="-58.2" font-family="Times New Roman,serif" font-size="14.00">instance&#45;of</text>
</g>
<!-- Course2 -->
<g id="node3" class="node">
<title>Course2</title>
<polygon fill="lightgreen" stroke="black" points="217,-90 217,-208.75 446,-208.75 446,-90 217,-90"/>
<text text-anchor="middle" x="331.5" y="-191.45" font-family="Helvetica,sans-Serif" font-size="14.00">Course Instance: MATH201</text>
<polyline fill="none" stroke="black" points="217,-185 446,-185"/>
<text text-anchor="middle" x="331.5" y="-167.7" font-family="Helvetica,sans-Serif" font-size="14.00">Code: MATH201</text>
<polyline fill="none" stroke="black" points="217,-161.25 446,-161.25"/>
<text text-anchor="middle" x="331.5" y="-143.95" font-family="Helvetica,sans-Serif" font-size="14.00">Title: &quot;Linear Algebra&quot;</text>
<polyline fill="none" stroke="black" points="217,-137.5 446,-137.5"/>
<text text-anchor="middle" x="331.5" y="-120.2" font-family="Helvetica,sans-Serif" font-size="14.00">Credits: 4</text>
<polyline fill="none" stroke="black" points="217,-113.75 446,-113.75"/>
<text text-anchor="middle" x="331.5" y="-96.45" font-family="Helvetica,sans-Serif" font-size="14.00">Instructor: &quot;Prof. Omar El‐Sayed&quot;</text>
</g>
<!-- Course2&#45;&gt;CourseFrame -->
<g id="edge2" class="edge">
<title>Course2&#45;&gt;CourseFrame</title>
<path fill="none" stroke="black" stroke-dasharray="5,2" d="M278.59,-89.59C264.51,-73.95 250.03,-57.86 238.5,-45.05"/>
<polygon fill="black" stroke="black" points="241.33,-42.96 232.04,-37.87 236.13,-47.65 241.33,-42.96"/>
<text text-anchor="middle" x="289.7" y="-58.2" font-family="Times New Roman,serif" font-size="14.00">instance&#45;of</text>
</g>
</g>
</svg>
