<?xml version="1.0" encoding="UTF-8" standalone="no"?>
<!DOCTYPE svg PUBLIC "-//W3C//DTD SVG 1.1//EN"
 "http://www.w3.org/Graphics/SVG/1.1/DTD/svg11.dtd">
<!-- Generated by graphviz version 12.2.1 (20241206.2353)
 -->
<!-- Title: FoodWeb Pages: 1 -->
<svg width="118pt" height="398pt"
 viewBox="0.00 0.00 118.09 398.00" xmlns="http://www.w3.org/2000/svg" xmlns:xlink="http://www.w3.org/1999/xlink">
<g id="graph0" class="graph" transform="scale(1 1) rotate(0) translate(4 394)">
<title>FoodWeb</title>
<polygon fill="white" stroke="none" points="-4,4 -4,-394 114.09,-394 114.09,4 -4,4"/>
<!-- A -->
<g id="node1" class="node">
<title>A</title>
<ellipse fill="lightgreen" stroke="black" cx="31" cy="-372" rx="18" ry="18"/>
<text text-anchor="middle" x="31" y="-366.57" font-family="Helvetica,sans-Serif" font-size="14.00">A</text>
</g>
<!-- B -->
<g id="node2" class="node">
<title>B</title>
<ellipse fill="lightgreen" stroke="black" cx="18" cy="-195" rx="18" ry="18"/>
<text text-anchor="middle" x="18" y="-189.57" font-family="Helvetica,sans-Serif" font-size="14.00">B</text>
</g>
<!-- A&#45;&gt;B -->
<g id="edge1" class="edge">
<title>A&#45;&gt;B</title>
<path fill="none" stroke="black" d="M24.83,-354.72C19.91,-340.82 13.41,-320.16 10.75,-301.5 7.02,-275.4 9.76,-245.38 12.88,-224.05"/>
<polygon fill="black" stroke="black" points="16.3,-224.81 14.43,-214.38 9.39,-223.71 16.3,-224.81"/>
<text text-anchor="middle" x="34.38" y="-278.45" font-family="Times New Roman,serif" font-size="14.00">preys&#45;on</text>
</g>
<!-- C -->
<g id="node3" class="node">
<title>C</title>
<ellipse fill="lightgreen" stroke="black" cx="85" cy="-283.5" rx="18" ry="18"/>
<text text-anchor="middle" x="85" y="-278.07" font-family="Helvetica,sans-Serif" font-size="14.00">C</text>
</g>
<!-- A&#45;&gt;C -->
<g id="edge2" class="edge">
<title>A&#45;&gt;C</title>
<path fill="none" stroke="black" d="M40.16,-356.33C48.31,-343.28 60.37,-323.95 69.94,-308.63"/>
<polygon fill="black" stroke="black" points="72.67,-310.87 74.99,-300.53 66.73,-307.16 72.67,-310.87"/>
<text text-anchor="middle" x="86.46" y="-322.7" font-family="Times New Roman,serif" font-size="14.00">preys&#45;on</text>
</g>
<!-- D -->
<g id="node4" class="node">
<title>D</title>
<ellipse fill="lightgreen" stroke="black" cx="18" cy="-106.5" rx="18" ry="18"/>
<text text-anchor="middle" x="18" y="-101.08" font-family="Helvetica,sans-Serif" font-size="14.00">D</text>
</g>
<!-- B&#45;&gt;D -->
<g id="edge3" class="edge">
<title>B&#45;&gt;D</title>
<path fill="none" stroke="black" d="M18,-176.91C18,-165.26 18,-149.55 18,-136.02"/>
<polygon fill="black" stroke="black" points="21.5,-136.36 18,-126.36 14.5,-136.36 21.5,-136.36"/>
<text text-anchor="middle" x="41.62" y="-145.7" font-family="Times New Roman,serif" font-size="14.00">preys&#45;on</text>
</g>
<!-- C&#45;&gt;B -->
<g id="edge4" class="edge">
<title>C&#45;&gt;B</title>
<path fill="none" stroke="black" d="M74.24,-268.6C63.78,-255.11 47.74,-234.4 35.46,-218.54"/>
<polygon fill="black" stroke="black" points="38.56,-216.82 29.66,-211.06 33.02,-221.11 38.56,-216.82"/>
<text text-anchor="middle" x="81.13" y="-234.2" font-family="Times New Roman,serif" font-size="14.00">preys&#45;on</text>
</g>
<!-- E -->
<g id="node5" class="node">
<title>E</title>
<ellipse fill="lightgreen" stroke="black" cx="18" cy="-18" rx="18" ry="18"/>
<text text-anchor="middle" x="18" y="-12.57" font-family="Helvetica,sans-Serif" font-size="14.00">E</text>
</g>
<!-- D&#45;&gt;E -->
<g id="edge5" class="edge">
<title>D&#45;&gt;E</title>
<path fill="none" stroke="black" d="M18,-88.41C18,-76.76 18,-61.05 18,-47.52"/>
<polygon fill="black" stroke="black" points="21.5,-47.86 18,-37.86 14.5,-47.86 21.5,-47.86"/>
<text text-anchor="middle" x="41.62" y="-57.2" font-family="Times New Roman,serif" font-size="14.00">preys&#45;on</text>
</g>
</g>
</svg>
