<?xml version="1.0" encoding="UTF-8" standalone="no"?>
<!DOCTYPE svg PUBLIC "-//W3C//DTD SVG 1.1//EN"
 "http://www.w3.org/Graphics/SVG/1.1/DTD/svg11.dtd">
<!-- Generated by graphviz version 12.2.1 (20241206.2353)
 -->
<!-- Title: ResolutionEducated Pages: 1 -->
<svg width="503pt" height="260pt"
 viewBox="0.00 0.00 502.50 260.00" xmlns="http://www.w3.org/2000/svg" xmlns:xlink="http://www.w3.org/1999/xlink">
<g id="graph0" class="graph" transform="scale(1 1) rotate(0) translate(4 256)">
<title>ResolutionEducated</title>
<polygon fill="white" stroke="none" points="-4,4 -4,-256 498.5,-256 498.5,4 -4,4"/>
<!-- Q1 -->
<g id="node1" class="node">
<title>Q1</title>
<polygon fill="none" stroke="black" points="268,-252 0,-252 0,-216 268,-216 268,-252"/>
<text text-anchor="middle" x="134" y="-228.95" font-family="Times New Roman,serif" font-size="14.00">¬Reads(x, Book) ∨ Educated(x) ∨ Wise(x)</text>
</g>
<!-- R1 -->
<g id="node5" class="node">
<title>R1</title>
<polygon fill="none" stroke="black" points="333.5,-180 146.5,-180 146.5,-144 333.5,-144 333.5,-180"/>
<text text-anchor="middle" x="240" y="-156.95" font-family="Times New Roman,serif" font-size="14.00">Educated(John) ∨ Wise(John)</text>
</g>
<!-- Q1&#45;&gt;R1 -->
<g id="edge1" class="edge">
<title>Q1&#45;&gt;R1</title>
<path fill="none" stroke="black" d="M160.47,-215.52C173.73,-206.76 189.96,-196.04 204.3,-186.58"/>
<polygon fill="black" stroke="black" points="206.18,-189.53 212.6,-181.09 202.33,-183.68 206.18,-189.53"/>
</g>
<!-- Q2 -->
<g id="node2" class="node">
<title>Q2</title>
<polygon fill="none" stroke="black" points="406.12,-252 285.88,-252 285.88,-216 406.12,-216 406.12,-252"/>
<text text-anchor="middle" x="346" y="-228.95" font-family="Times New Roman,serif" font-size="14.00">Reads(John, Book)</text>
</g>
<!-- Q2&#45;&gt;R1 -->
<g id="edge2" class="edge">
<title>Q2&#45;&gt;R1</title>
<path fill="none" stroke="black" d="M319.53,-215.52C306.27,-206.76 290.04,-196.04 275.7,-186.58"/>
<polygon fill="black" stroke="black" points="277.67,-183.68 267.4,-181.09 273.82,-189.53 277.67,-183.68"/>
</g>
<!-- Q3 -->
<g id="node3" class="node">
<title>Q3</title>
<polygon fill="none" stroke="black" points="438.25,-180 351.75,-180 351.75,-144 438.25,-144 438.25,-180"/>
<text text-anchor="middle" x="395" y="-156.95" font-family="Times New Roman,serif" font-size="14.00">¬Wise(John)</text>
</g>
<!-- R2 -->
<g id="node6" class="node">
<title>R2</title>
<polygon fill="none" stroke="black" points="367.38,-108 266.62,-108 266.62,-72 367.38,-72 367.38,-108"/>
<text text-anchor="middle" x="317" y="-84.95" font-family="Times New Roman,serif" font-size="14.00">Educated(John)</text>
</g>
<!-- Q3&#45;&gt;R2 -->
<g id="edge4" class="edge">
<title>Q3&#45;&gt;R2</title>
<path fill="none" stroke="black" d="M375.72,-143.7C366.34,-135.28 354.91,-125.02 344.62,-115.79"/>
<polygon fill="black" stroke="black" points="347.24,-113.43 337.46,-109.36 342.56,-118.64 347.24,-113.43"/>
</g>
<!-- Q4 -->
<g id="node4" class="node">
<title>Q4</title>
<polygon fill="none" stroke="black" points="494.5,-108 385.5,-108 385.5,-72 494.5,-72 494.5,-108"/>
<text text-anchor="middle" x="440" y="-84.95" font-family="Times New Roman,serif" font-size="14.00">¬Educated(John)</text>
</g>
<!-- R3 -->
<g id="node7" class="node">
<title>R3</title>
<polygon fill="none" stroke="black" points="405,-36 351,-36 351,0 405,0 405,-36"/>
<text text-anchor="middle" x="378" y="-11.82" font-family="Times New Roman,serif" font-size="14.00">⊥</text>
</g>
<!-- Q4&#45;&gt;R3 -->
<g id="edge6" class="edge">
<title>Q4&#45;&gt;R3</title>
<path fill="none" stroke="black" d="M424.67,-71.7C417.47,-63.56 408.72,-53.69 400.76,-44.7"/>
<polygon fill="black" stroke="black" points="403.4,-42.4 394.15,-37.24 398.16,-47.04 403.4,-42.4"/>
</g>
<!-- R1&#45;&gt;R2 -->
<g id="edge3" class="edge">
<title>R1&#45;&gt;R2</title>
<path fill="none" stroke="black" d="M259.03,-143.7C268.2,-135.37 279.35,-125.22 289.43,-116.07"/>
<polygon fill="black" stroke="black" points="291.75,-118.68 296.8,-109.37 287.04,-113.5 291.75,-118.68"/>
</g>
<!-- R2&#45;&gt;R3 -->
<g id="edge5" class="edge">
<title>R2&#45;&gt;R3</title>
<path fill="none" stroke="black" d="M332.08,-71.7C339.17,-63.56 347.77,-53.69 355.6,-44.7"/>
<polygon fill="black" stroke="black" points="358.17,-47.08 362.1,-37.25 352.89,-42.49 358.17,-47.08"/>
</g>
</g>
</svg>
