<?xml version="1.0" encoding="UTF-8" standalone="no"?>
<!DOCTYPE svg PUBLIC "-//W3C//DTD SVG 1.1//EN"
 "http://www.w3.org/Graphics/SVG/1.1/DTD/svg11.dtd">
<!-- Generated by graphviz version 12.2.1 (20241206.2353)
 -->
<!-- Title: Animals Pages: 1 -->
<svg width="1225pt" height="400pt"
 viewBox="0.00 0.00 1224.64 400.42" xmlns="http://www.w3.org/2000/svg" xmlns:xlink="http://www.w3.org/1999/xlink">
<g id="graph0" class="graph" transform="scale(1 1) rotate(0) translate(4 396.42)">
<title>Animals</title>
<polygon fill="white" stroke="none" points="-4,4 -4,-396.42 1220.64,-396.42 1220.64,4 -4,4"/>
<!-- Animals -->
<g id="node1" class="node">
<title>Animals</title>
<ellipse fill="lightblue" stroke="black" cx="461.06" cy="-43.08" rx="43.08" ry="43.08"/>
<text text-anchor="middle" x="461.06" y="-37.65" font-family="Helvetica,sans-Serif" font-size="14.00">Animals</text>
</g>
<!-- Mammals -->
<g id="node2" class="node">
<title>Mammals</title>
<ellipse fill="lightblue" stroke="black" cx="51.06" cy="-203.2" rx="51.06" ry="51.06"/>
<text text-anchor="middle" x="51.06" y="-197.77" font-family="Helvetica,sans-Serif" font-size="14.00">Mammals</text>
</g>
<!-- Mammals&#45;&gt;Animals -->
<g id="edge1" class="edge">
<title>Mammals&#45;&gt;Animals</title>
<path fill="none" stroke="black" d="M82.38,-162.23C90.88,-153.43 100.65,-144.89 111.06,-138.66 205.8,-82.01 334.98,-58.59 406.97,-49.46"/>
<polygon fill="black" stroke="black" points="407.01,-52.98 416.51,-48.29 406.16,-46.03 407.01,-52.98"/>
<text text-anchor="middle" x="196.54" y="-107.36" font-family="Times New Roman,serif" font-size="14.00">AKO</text>
</g>
<!-- Birds -->
<g id="node3" class="node">
<title>Birds</title>
<ellipse fill="lightblue" stroke="black" cx="461.06" cy="-203.2" rx="31.1" ry="31.1"/>
<text text-anchor="middle" x="461.06" y="-197.77" font-family="Helvetica,sans-Serif" font-size="14.00">Birds</text>
</g>
<!-- Birds&#45;&gt;Animals -->
<g id="edge2" class="edge">
<title>Birds&#45;&gt;Animals</title>
<path fill="none" stroke="black" d="M461.06,-171.71C461.06,-150.79 461.06,-122.47 461.06,-97.82"/>
<polygon fill="black" stroke="black" points="464.56,-97.94 461.06,-87.94 457.56,-97.94 464.56,-97.94"/>
<text text-anchor="middle" x="475.69" y="-107.36" font-family="Times New Roman,serif" font-size="14.00">AKO</text>
</g>
<!-- Reptiles -->
<g id="node4" class="node">
<title>Reptiles</title>
<ellipse fill="lightblue" stroke="black" cx="828.06" cy="-203.2" rx="43.08" ry="43.08"/>
<text text-anchor="middle" x="828.06" y="-197.77" font-family="Helvetica,sans-Serif" font-size="14.00">Reptiles</text>
</g>
<!-- Reptiles&#45;&gt;Animals -->
<g id="edge3" class="edge">
<title>Reptiles&#45;&gt;Animals</title>
<path fill="none" stroke="black" d="M804.82,-166.34C796.76,-156.19 786.97,-145.94 776.06,-138.66 694.79,-84.44 581.44,-60.45 515.2,-50.5"/>
<polygon fill="black" stroke="black" points="516.09,-47.09 505.69,-49.12 515.09,-54.02 516.09,-47.09"/>
<text text-anchor="middle" x="760.26" y="-107.36" font-family="Times New Roman,serif" font-size="14.00">AKO</text>
</g>
<!-- Dog -->
<g id="node5" class="node">
<title>Dog</title>
<ellipse fill="lightblue" stroke="black" cx="196.06" cy="-356.33" rx="27.11" ry="27.11"/>
<text text-anchor="middle" x="196.06" y="-350.9" font-family="Helvetica,sans-Serif" font-size="14.00">Dog</text>
</g>
<!-- Dog&#45;&gt;Mammals -->
<g id="edge4" class="edge">
<title>Dog&#45;&gt;Mammals</title>
<path fill="none" stroke="black" d="M177.42,-336.26C160.15,-318.57 133.78,-291.46 111.06,-267.73 105.24,-261.65 99.11,-255.21 93.1,-248.86"/>
<polygon fill="black" stroke="black" points="96.02,-246.86 86.6,-242 90.93,-251.67 96.02,-246.86"/>
<text text-anchor="middle" x="158.28" y="-288.93" font-family="Times New Roman,serif" font-size="14.00">AKO</text>
</g>
<!-- 4 legs -->
<g id="node6" class="node">
<title>4 legs</title>
<ellipse fill="lightblue" stroke="black" cx="155.06" cy="-203.2" rx="34.6" ry="34.6"/>
<text text-anchor="middle" x="155.06" y="-197.77" font-family="Helvetica,sans-Serif" font-size="14.00">4 legs</text>
</g>
<!-- Dog&#45;&gt;4 legs -->
<g id="edge5" class="edge">
<title>Dog&#45;&gt;4 legs</title>
<path fill="none" stroke="black" d="M189.11,-329.69C183.05,-307.36 174.14,-274.51 166.95,-248.02"/>
<polygon fill="black" stroke="black" points="170.38,-247.3 164.39,-238.56 163.63,-249.13 170.38,-247.3"/>
<text text-anchor="middle" x="190.63" y="-288.93" font-family="Times New Roman,serif" font-size="14.00">has</text>
</g>
<!-- bark -->
<g id="node7" class="node">
<title>bark</title>
<ellipse fill="lightblue" stroke="black" cx="236.06" cy="-203.2" rx="28.11" ry="28.11"/>
<text text-anchor="middle" x="236.06" y="-197.77" font-family="Helvetica,sans-Serif" font-size="14.00">bark</text>
</g>
<!-- Dog&#45;&gt;bark -->
<g id="edge6" class="edge">
<title>Dog&#45;&gt;bark</title>
<path fill="none" stroke="black" d="M202.85,-329.69C209.23,-305.59 218.85,-269.24 226.1,-241.85"/>
<polygon fill="black" stroke="black" points="229.48,-242.75 228.66,-232.19 222.71,-240.96 229.48,-242.75"/>
<text text-anchor="middle" x="223.04" y="-288.93" font-family="Times New Roman,serif" font-size="14.00">can</text>
</g>
<!-- domesticated -->
<g id="node8" class="node">
<title>domesticated</title>
<ellipse fill="lightblue" stroke="black" cx="347.06" cy="-203.2" rx="64.54" ry="64.54"/>
<text text-anchor="middle" x="347.06" y="-197.77" font-family="Helvetica,sans-Serif" font-size="14.00">domesticated</text>
</g>
<!-- Dog&#45;&gt;domesticated -->
<g id="edge7" class="edge">
<title>Dog&#45;&gt;domesticated</title>
<path fill="none" stroke="black" d="M214.88,-336.49C234.53,-316.83 266.23,-285.1 293.67,-257.64"/>
<polygon fill="black" stroke="black" points="295.99,-260.26 300.59,-250.71 291.04,-255.32 295.99,-260.26"/>
<text text-anchor="middle" x="267.02" y="-288.93" font-family="Times New Roman,serif" font-size="14.00">is</text>
</g>
<!-- Eagle -->
<g id="node9" class="node">
<title>Eagle</title>
<ellipse fill="lightblue" stroke="black" cx="579.06" cy="-356.33" rx="33.6" ry="33.6"/>
<text text-anchor="middle" x="579.06" y="-350.9" font-family="Helvetica,sans-Serif" font-size="14.00">Eagle</text>
</g>
<!-- Eagle&#45;&gt;Birds -->
<g id="edge8" class="edge">
<title>Eagle&#45;&gt;Birds</title>
<path fill="none" stroke="black" d="M556.59,-330.86C548.42,-321.9 539.15,-311.65 530.81,-302.23 517.39,-287.07 513.1,-284.01 501.06,-267.73 494.63,-259.04 488.17,-249.3 482.37,-240.12"/>
<polygon fill="black" stroke="black" points="485.41,-238.38 477.16,-231.72 479.46,-242.07 485.41,-238.38"/>
<text text-anchor="middle" x="545.44" y="-288.93" font-family="Times New Roman,serif" font-size="14.00">AKO</text>
</g>
<!-- wings -->
<g id="node10" class="node">
<title>wings</title>
<ellipse fill="lightblue" stroke="black" cx="544.06" cy="-203.2" rx="33.6" ry="33.6"/>
<text text-anchor="middle" x="544.06" y="-197.77" font-family="Helvetica,sans-Serif" font-size="14.00">wings</text>
</g>
<!-- Eagle&#45;&gt;wings -->
<g id="edge9" class="edge">
<title>Eagle&#45;&gt;wings</title>
<path fill="none" stroke="black" d="M571.64,-323.28C566.53,-301.21 559.68,-271.63 554.09,-247.48"/>
<polygon fill="black" stroke="black" points="557.54,-246.89 551.88,-237.94 550.72,-248.47 557.54,-246.89"/>
<text text-anchor="middle" x="575.74" y="-288.93" font-family="Times New Roman,serif" font-size="14.00">has</text>
</g>
<!-- fly -->
<g id="node11" class="node">
<title>fly</title>
<ellipse fill="lightblue" stroke="black" cx="615.06" cy="-203.2" rx="19.63" ry="19.63"/>
<text text-anchor="middle" x="615.06" y="-197.77" font-family="Helvetica,sans-Serif" font-size="14.00">fly</text>
</g>
<!-- Eagle&#45;&gt;fly -->
<g id="edge10" class="edge">
<title>Eagle&#45;&gt;fly</title>
<path fill="none" stroke="black" d="M586.7,-323.28C593.03,-296.68 601.97,-259.17 608.11,-233.39"/>
<polygon fill="black" stroke="black" points="611.45,-234.47 610.36,-223.93 604.64,-232.84 611.45,-234.47"/>
<text text-anchor="middle" x="604.28" y="-288.93" font-family="Times New Roman,serif" font-size="14.00">can</text>
</g>
<!-- carnivorous -->
<g id="node12" class="node">
<title>carnivorous</title>
<ellipse fill="lightblue" stroke="black" cx="710.06" cy="-203.2" rx="57.05" ry="57.05"/>
<text text-anchor="middle" x="710.06" y="-197.77" font-family="Helvetica,sans-Serif" font-size="14.00">carnivorous</text>
</g>
<!-- Eagle&#45;&gt;carnivorous -->
<g id="edge11" class="edge">
<title>Eagle&#45;&gt;carnivorous</title>
<path fill="none" stroke="black" d="M600.7,-330.37C618.32,-310.03 643.8,-280.64 665.73,-255.35"/>
<polygon fill="black" stroke="black" points="668.12,-257.94 672.02,-248.09 662.83,-253.35 668.12,-257.94"/>
<text text-anchor="middle" x="641.22" y="-288.93" font-family="Times New Roman,serif" font-size="14.00">is</text>
</g>
<!-- Snake -->
<g id="node13" class="node">
<title>Snake</title>
<ellipse fill="lightblue" stroke="black" cx="987.06" cy="-356.33" rx="36.09" ry="36.09"/>
<text text-anchor="middle" x="987.06" y="-350.9" font-family="Helvetica,sans-Serif" font-size="14.00">Snake</text>
</g>
<!-- Snake&#45;&gt;Reptiles -->
<g id="edge12" class="edge">
<title>Snake&#45;&gt;Reptiles</title>
<path fill="none" stroke="black" d="M958.04,-334.09C935.74,-317.18 904.68,-292.35 880.06,-267.73 873.54,-261.21 867,-253.93 860.86,-246.69"/>
<polygon fill="black" stroke="black" points="863.91,-244.88 854.83,-239.42 858.52,-249.35 863.91,-244.88"/>
<text text-anchor="middle" x="931.19" y="-288.93" font-family="Times New Roman,serif" font-size="14.00">AKO</text>
</g>
<!-- slithers -->
<g id="node14" class="node">
<title>slithers</title>
<ellipse fill="lightblue" stroke="black" cx="928.06" cy="-203.2" rx="39.09" ry="39.09"/>
<text text-anchor="middle" x="928.06" y="-197.77" font-family="Helvetica,sans-Serif" font-size="14.00">slithers</text>
</g>
<!-- Snake&#45;&gt;slithers -->
<g id="edge13" class="edge">
<title>Snake&#45;&gt;slithers</title>
<path fill="none" stroke="black" d="M974.12,-322.16C965.95,-301.23 955.27,-273.89 946.26,-250.8"/>
<polygon fill="black" stroke="black" points="949.56,-249.64 942.67,-241.6 943.04,-252.19 949.56,-249.64"/>
<text text-anchor="middle" x="975.67" y="-288.93" font-family="Times New Roman,serif" font-size="14.00">can</text>
</g>
<!-- cold&#45;blooded -->
<g id="node15" class="node">
<title>cold&#45;blooded</title>
<ellipse fill="lightblue" stroke="black" cx="1047.06" cy="-203.2" rx="62.04" ry="62.04"/>
<text text-anchor="middle" x="1047.06" y="-197.77" font-family="Helvetica,sans-Serif" font-size="14.00">cold&#45;blooded</text>
</g>
<!-- Snake&#45;&gt;cold&#45;blooded -->
<g id="edge14" class="edge">
<title>Snake&#45;&gt;cold&#45;blooded</title>
<path fill="none" stroke="black" d="M1000.08,-322.53C1006.02,-307.58 1013.28,-289.3 1020.29,-271.63"/>
<polygon fill="black" stroke="black" points="1023.39,-273.31 1023.83,-262.72 1016.89,-270.73 1023.39,-273.31"/>
<text text-anchor="middle" x="1017.97" y="-288.93" font-family="Times New Roman,serif" font-size="14.00">is</text>
</g>
<!-- no limbs -->
<g id="node16" class="node">
<title>no limbs</title>
<ellipse fill="lightblue" stroke="black" cx="1172.06" cy="-203.2" rx="44.58" ry="44.58"/>
<text text-anchor="middle" x="1172.06" y="-197.77" font-family="Helvetica,sans-Serif" font-size="14.00">no limbs</text>
</g>
<!-- Snake&#45;&gt;no limbs -->
<g id="edge15" class="edge">
<title>Snake&#45;&gt;no limbs</title>
<path fill="none" stroke="black" d="M1018.44,-337.72C1046.12,-321.43 1086.81,-295.58 1118.06,-267.73 1124.98,-261.57 1131.81,-254.52 1138.16,-247.41"/>
<polygon fill="black" stroke="black" points="1140.48,-250.08 1144.39,-240.24 1135.2,-245.49 1140.48,-250.08"/>
<text text-anchor="middle" x="1103.84" y="-288.93" font-family="Times New Roman,serif" font-size="14.00">has</text>
</g>
</g>
</svg>
